<?xml version="1.0" encoding="utf-8"?>
<!-- Generator: Adobe Illustrator 22.1.0, SVG Export Plug-In . SVG Version: 6.00 Build 0)  -->
<svg version="1.1" id="Layer_1" xmlns="http://www.w3.org/2000/svg" xmlns:xlink="http://www.w3.org/1999/xlink" x="0px" y="0px"
	 viewBox="0 0 280 280" style="enable-background:new 0 0 280 280;" xml:space="preserve">
<style type="text/css">
	.st0{fill:#FFFFFF;}
</style>
<g>
	<path class="st0" d="M85.2,32.6c-1.5-8.6-18.2-6-14.8,3.6C73.7,45.8,85.3,41.3,85.2,32.6z"/>
	<path class="st0" d="M84,59.3c10.8-3.2,19.8-18.3,18.8-29.1c-1.5-16.2-16.4-21.1-30.5-19c-17.2,2.5-19.6,14.5-19.6,30
		C60.4,50.7,69.7,63.5,84,59.3z M85.2,32.6c0.1,8.7-11.6,13.2-14.8,3.6C67.1,26.6,83.8,24,85.2,32.6z"/>
	<path class="st0" d="M133,73.7c0-0.8,0.2-1.6,0.6-2.3c0.1-0.1,0.1-0.2,0.2-0.3c0.3-1.7,0-3-0.3-4c-1.3-3.6-5.1-6.3-9.3-6.6
		c-5.6-0.3-11.9,0.8-18,1.9l-1.8,0.3c-5.8,1-10.7,1.9-15.5,2.7c-10.1,1.7-18.8,3.2-31.2,5.8c-1.7,0.4-3.9,0.7-6.3,1
		c-8,1.1-17.9,2.5-23.8,7.9l0,0c-5.8,5.7-5.6,10-4.4,12.5c2,4.2,7.7,6.2,12,5.7c4.4-0.5,9.2-1.6,13.7-2.7c1.8-0.4,3.7-0.9,5.6-1.3
		l0.1,0c2.8-0.6,5.7-1.3,8.5-1.7c0.8-0.1,1.5-0.3,2.1-0.4c1-0.2,2-0.4,2.3-0.3c0.2,0.2,0.5,1.3,0.6,1.7c0.8,2.9,0.1,5.1-0.8,7.9
		c-0.5,1.6-1.1,3.5-1.5,5.7c-4.6,31.9-5.8,45.3-6.4,82.2c-0.1,3.8,0,7.8,0,11.6c0,5.4,0.1,11-0.1,16.4c-0.1,2.2-0.5,4.5-1,7.1
		c-0.8,4.6-1.7,9.3-0.5,13.5c1.4,4.9,5.8,8.3,11.4,8.7c0.4,0,0.7,0,1.1,0c5,0,9.3-2.6,11.3-6.9c1.7-3.8,1.9-9.1,2.1-13.8
		c0.1-1.4,0.1-2.7,0.2-3.9c1-13.2,0.9-25.5,0.7-37.4c-0.2-12.7-0.4-11.7,0.9-25.9c0.8-8.2,1.7-16.8,2.7-25.9
		c1.6-14.8,3.3-30.1,4.2-44.4c3.7-0.6,6-1.3,8.3-2.1c2.4-0.8,4.7-1.5,8.8-2.1c1.3-0.2,2.8-0.2,4.4-0.3c4.7-0.1,10-0.3,14.8-4.6
		C130.9,77.4,132.3,75.5,133,73.7z"/>
	<path class="st0" d="M133.5,76.1l20.1,45.6c1.2,2.7,4.4,3.9,7.1,2.6l26.2-12.7c1.2-0.6,2.1-1.5,2.6-2.6c0.7-1.4,0.8-3.2,0.1-4.7
		l-20.1-45.6c-1.2-2.7-4.4-3.9-7.1-2.6l-26.2,12.7c-1,0.5-1.9,1.3-2.4,2.3c-0.1,0.8-0.4,1.7-0.8,2.7C133,74.5,133.1,75.3,133.5,76.1
		z"/>
	<path class="st0" d="M133,73.7c0.4-1,0.7-1.8,0.8-2.7c-0.1,0.1-0.1,0.2-0.2,0.3C133.3,72.1,133.1,72.9,133,73.7z"/>
	<path class="st0" d="M223.1,141.6l-79.5-0.7c-3.5,0-6.8,0.9-9.3,2.4c-3.3,2-5.3,5.2-5.2,8.8l4.3,104.7c0.3,6.3,7.1,11.4,15.3,11.5
		l79.5,0.7c3.5,0,6.8-0.9,9.3-2.4c3.3-2,5.3-5.2,5.2-8.8l-4.3-104.7C238.2,146.9,231.3,141.7,223.1,141.6z M166.6,172.2l-0.4,1.2
		c0,0.1-0.1,0.4-0.3,1.1l-0.1,0.3c-0.2,0.9-0.5,2.1-0.7,3.5c-0.3,1.5-0.5,3-0.7,4.6c-0.3,1.9-0.7,3.7-1,5.8
		c-0.4,2.1-0.9,4.5-1.5,6.9c-0.4,1.8-0.8,3.8-1.1,6c-0.4,2.5-0.8,4.9-1.2,7.1c-0.3,1.9-0.7,4.1-0.9,6.2l-1.1,6.7
		c-0.4,2-0.7,3.8-0.9,5.4c-0.2,1.5-0.4,3-0.5,4.4c-0.1,1.5-0.3,2.8-0.4,3.8c-0.1,0.9-0.1,1.8-0.1,2.5c0,0.8-0.1,1.4-0.1,1.8v1.4
		c0,1-0.1,1.9-0.4,2.7l-0.2,0.7c-0.3,1.2-1,2.3-2.1,3c-0.8,0.5-1.6,0.8-2.5,0.8c-0.3,0-0.6,0-0.8-0.1c-1.2-0.2-2.3-0.9-3-2
		c-0.8-1.2-1.2-2.7-0.9-4.1l0.3-1.1l0-1.3c0-0.6,0-1.3,0.1-2.3c0-1,0.1-2.1,0.3-3.2c0.1-1,0.2-2.3,0.3-3.7c0.1-1.5,0.3-3.1,0.6-4.8
		c0.2-1.6,0.5-3.5,0.9-5.8c0.4-2.2,0.8-4.2,1.1-6.3c0.1-0.6,0.2-1.3,0.3-1.9c-0.2-0.4-0.3-0.8-0.4-1.2l-0.1-0.6l-0.4-1.2
		c-0.4-0.9-0.8-2.1-1.2-3.6c-0.3-1.4-0.6-2.7-1-4.1c-0.4-1.4-0.7-2.9-1.1-4.4c-0.4-1.5-0.8-3.1-1.2-4.9c-0.4-1.8-0.8-3.4-1.1-5
		c-0.3-1.5-0.7-3-1-4.4c-0.4-1.4-0.8-3-1.1-4.4c-0.3-1.4-0.6-2.7-0.7-3.9c-0.2-1.4-0.2-2.9,0-4.4l0.1-1.5c0.2-1,0.6-2.3,1.9-3.4
		c0.9-0.7,2-1.1,3.2-1c1.2,0.1,2.3,0.6,3.1,1.5c1.1,1.1,1.6,2.7,1.4,4.2l-0.1,1.7c-0.1,0.5-0.1,0.8,0,1.2l0,0.3
		c0.1,0.7,0.2,1.7,0.5,2.8c0.3,1.2,0.6,2.5,1,3.9l1.2,4.9c0.3,1.5,0.7,3.1,1.1,4.8c0,0.2,0.1,0.4,0.1,0.5c0.2-0.9,0.3-1.8,0.4-2.6
		c0.4-2.1,0.7-4,1-5.6l0.8-4.9c0.3-1.6,0.5-3,0.8-4c0.3-1.2,0.5-2.2,0.8-2.9l0.3-0.8c0.3-0.8,1-2,2.4-2.7c1.1-0.5,2.2-0.6,3.3-0.2
		c1.2,0.4,2.1,1.1,2.7,2.1C166.8,169,167,170.7,166.6,172.2z M195.6,177c-0.9,0.7-1.9,1.1-3,1.1h-7.8c0,0,0,0,0,0v4.4
		c-0.1,1.9-0.1,3.8-0.1,5.8c-0.1,2.1-0.2,4.3-0.2,6.7v0c-0.1,2.6-0.3,5.2-0.7,7.7l-0.3,2.3c0.4,0,0.8,0,1.2,0.1
		c0.6,0.1,1.1,0.1,1.4,0.1c0.2,0,0.5,0,1.2-0.1l1.1-0.3c1.1-0.3,2.2-0.1,3.3,0.4c1.6,0.9,2.2,2.2,2.4,3.2c0.4,1.5,0.1,3-0.6,4.3
		c-0.7,1.1-1.7,1.9-3,2.1l-1.1,0.2c-2.1,0.6-3.7,0.5-5.3,0.3l-1.4,0c-0.1,0-0.2,0-0.3,0c0,0.1,0,0.3,0,0.4c-0.1,2-0.3,3.9-0.3,5.7
		c0,1.5,0,3.1,0.1,4.4c0.1,1.4,0.2,2.7,0.3,3.9c0.1,1.2,0.3,2.3,0.4,3.1c0.1,0.3,0.1,0.6,0.2,1c0.4,0,0.7-0.1,1.1-0.1
		c1.1-0.1,1.8-0.1,2.4-0.2l0.2,0c0.5,0,0.9,0,1.2,0c0.4,0,0.8-0.1,1.2-0.1l0.9-0.2c1.1-0.1,2.2,0.1,3.1,0.6c1.5,0.9,2.1,2.3,2.3,3.3
		c0.4,1.7,0,3.4-1.1,4.6c-0.7,0.8-1.6,1.4-2.7,1.7l-1.1,0.2c-0.6,0.1-1.2,0.1-1.7,0.2c-0.6,0.1-1.2,0.1-1.9,0.1
		c-0.4,0.1-1.1,0.1-1.9,0.2c-0.8,0.1-1.7,0.2-2.7,0.3c-0.4,0-0.8,0.1-1.3,0.1c-0.9,0-1.9-0.1-2.8-0.3c-4.5-1-5-4.5-5-5.9
		c0-0.5,0-1.1,0.1-2c0-0.3-0.1-0.7-0.1-1.2c-0.2-1-0.4-2.3-0.6-3.8c-0.2-1.4-0.3-3-0.4-4.6c-0.1-1.5-0.1-3.3-0.1-5.2
		c0.1-2,0.2-4,0.4-6.3c0.2-2.2,0.4-4.5,0.7-6.8c0.3-2.3,0.6-4.7,1-7c0.3-2,0.5-4.1,0.5-6.2c0.1-2.5,0.1-4.7,0.2-6.8c0-2,0-4,0.1-5.8
		l0-4.4c0-1.4,0-2.6,0.1-3.5l0.2-1.3c0-0.5,0.2-1.1,0.5-1.7c0.6-1.9,2.2-3.2,4.2-3.3l1,0c0.4-0.1,0.9-0.1,1.5-0.2
		c0.9-0.1,1.6-0.1,2.4-0.1h7.7c1.1,0,2.2,0.4,3.1,1.2c1.5,1.3,1.7,3.1,1.7,4C197.4,174,197.2,175.8,195.6,177z M234.3,226.7
		c-0.1,1.3-0.3,2.6-0.7,3.8c-0.3,1.2-0.7,2.5-1.3,3.9l-0.1,0.2c-0.6,1.2-1.2,2.2-1.8,3.1l-0.1,0.2c-0.8,1.1-1.7,2.1-2.6,2.9
		c-0.8,0.7-1.6,1.4-2.4,1.9l-0.2,0.1c-0.8,0.4-1.6,0.8-2.4,1.2c-0.9,0.3-1.9,0.6-3.1,0.9c-1.1,0.3-2,0.5-2.6,0.5
		c-0.4,0.1-0.9,0.1-1.5,0.1s-1.1,0-1.6-0.1l-0.9-0.1c-1.2-0.2-2.3-0.8-3.1-1.8c-1.3-1.7-1.2-3.4-1.1-4.3c0.2-1.5,1-2.7,2.3-3.5
		c1-0.6,2-0.8,3.1-0.7l1.1,0.2l0.1,0c0.3,0,0.9-0.1,1.9-0.4c0.9-0.2,1.5-0.4,1.9-0.5c0.2-0.1,0.6-0.3,1-0.5l0.2-0.1
		c0.2-0.1,0.6-0.3,1.1-0.8c0.3-0.3,0.6-0.6,0.9-1.1c0.3-0.5,0.7-1.2,1-2c0.5-1,0.7-1.5,0.7-1.8l0.1-0.2c0.2-0.6,0.3-1.3,0.3-2
		c0.1-0.8,0.1-1.6,0.1-2.2c-0.1-0.6-0.2-1.3-0.4-2.1c-0.2-0.9-0.4-1.9-0.7-2.8c-0.3-0.8-0.8-1.7-1.3-2.6c-0.5-0.8-1.1-1.6-1.8-2.4
		c-0.9-1-2-2-3.2-3.1c-1.4-1.2-3-2.6-4.8-4c-2-1.6-3.5-2.9-4.4-4c-0.9-1-1.8-2.1-2.6-3.4l0,0c-0.9-1.5-1.7-3.2-2.2-5.1
		c-0.6-2-0.8-3.9-0.7-5.9c0.2-1.9,0.6-3.7,1.2-5.5c0.6-1.7,1.4-3.4,2.3-4.9c1-1.5,2-2.8,3.1-3.8c1.2-1.2,2.6-2.2,4-2.9
		c1.4-0.7,3.1-1.1,4.8-1.3c1.7-0.2,3.2-0.1,4.6,0.3c1,0.2,2,0.6,2.9,1.1l0.8,0.5c1.2,0.7,2,1.8,2.4,3.3c0.4,1.6,0,3.2-0.9,4.5
		c-0.7,1-1.7,1.6-2.9,1.8c-1.1,0.2-2.1,0-3.1-0.5l-1.2-0.6c0,0-0.1-0.1-0.5-0.2c-0.3-0.1-0.7-0.1-1.3,0c-0.6,0.1-1.3,0.3-1.8,0.5
		c-0.4,0.2-0.8,0.5-1.2,0.9c-0.6,0.7-1.3,1.5-1.9,2.4c-0.5,0.8-0.9,1.7-1.3,2.6c-0.3,0.8-0.5,1.7-0.5,2.5c0,0.6,0,1.2,0.3,2l0.1,0.2
		c0.2,0.9,0.5,1.5,0.9,2.1c0.6,0.8,1.2,1.6,1.7,2.3c0.3,0.4,1.1,1.2,3.2,2.9c1.9,1.5,3.5,2.9,5,4.1c1.6,1.4,2.9,2.7,4,3.8
		c1.2,1.4,2.2,2.7,3.1,4.1c0.9,1.4,1.5,2.9,2.1,4.3c0.5,1.4,0.9,2.8,1.2,4.2c0.3,1.4,0.5,2.7,0.6,3.9l0,0.3
		C234.4,224.4,234.4,225.5,234.3,226.7z"/>
</g>
</svg>
