<?xml version="1.0" encoding="utf-8"?>
<!-- Generator: Adobe Illustrator 22.1.0, SVG Export Plug-In . SVG Version: 6.00 Build 0)  -->
<svg version="1.1" id="Layer_1" xmlns="http://www.w3.org/2000/svg" xmlns:xlink="http://www.w3.org/1999/xlink" x="0px" y="0px"
	 viewBox="0 0 280 280" style="enable-background:new 0 0 280 280;" xml:space="preserve">
<style type="text/css">
	.st0{fill:#FFFFFF;}
</style>
<path class="st0" d="M205.9,43.7c8.7,7,16.2-7.9,8.9-12.9C206.9,26.7,198,37.4,205.9,43.7z"/>
<path class="st0" d="M152.3,77.7l-27.3-13.2c-2.8-1.4-6.1-0.2-7.4,2.7l-20.9,47.5c-0.7,1.6-0.6,3.4,0.1,4.9c0.6,1.1,1.5,2.1,2.7,2.7
	l26.3,12.7l3.1,0c1.1,0,2.2,0.1,3.2,0.2c0.9-0.6,1.6-1.4,2.1-2.4l20.9-47.5c0.7-1.6,0.6-3.4-0.1-4.9
	C154.4,79.2,153.5,78.3,152.3,77.7z"/>
<path class="st0" d="M126.9,135.5l-1-0.5l-77.7,0.7c-8.4,0.1-15.3,5.3-15.6,11.6l-4.4,106.2c-0.1,3.6,1.9,6.8,5.2,8.9
	c2.5,1.6,5.8,2.5,9.4,2.5l80.8-0.7c8.4-0.1,15.3-5.3,15.6-11.6l4.4-106.2c0.1-3.6-1.9-6.8-5.2-8.9c-1.7-1.1-3.9-1.9-6.2-2.2
	C130.6,136.1,128.7,136.3,126.9,135.5z M93.9,160.1l-0.3,3.4c0,0.1-0.1,0.6-0.3,1.6c-0.2,1.1-0.4,2.4-0.7,3.8
	c-0.3,1.3-0.7,2.8-1.2,4.5c-0.5,1.5-1,3.2-1.5,4.9c-0.5,1.7-0.9,3.5-1.3,5.3c-0.5,2.2-1.1,4.4-1.7,6.6c-0.6,2.1-1.1,4.2-1.5,6.1
	c-0.3,1.9-0.7,4.1-1.2,6.4c-0.4,2-0.7,3.7-0.8,5.3c-0.2,2-0.5,4.1-0.8,6.2c-0.3,1.8-0.6,3.7-0.9,5.5c-0.3,2-0.6,4.2-1.1,6.4
	c-0.4,2.1-0.9,4.1-1.3,6c-0.5,1.8-0.8,3.3-1,4.6l-0.2,1.2l-3.2,3.6c-2.2,1.7-3.8,1.4-4.8,0.9c-0.8-0.4-2-1.4-2.5-3.6l-0.1-0.5
	c0-0.4-0.1-0.7-0.2-1c-0.1-0.4-0.2-0.8-0.3-1.3c-0.2-0.7-0.3-1.4-0.4-2.2c-0.1-0.6-0.2-1.3-0.4-2.2c-0.1-0.8-0.2-1.7-0.3-2.8
	c-0.2-1-0.4-2.3-0.5-3.6l0-0.2c0-1-0.1-2.2-0.2-3.5c-0.2-1.5-0.5-3.2-0.6-5.1c-0.2-1.6-0.4-3.7-0.5-5.8c-0.2-1.8-0.4-3.7-0.7-5.8
	c-0.2-1.9-0.6-3.9-0.9-5.9c-0.3-1.8-0.7-3.6-1.2-5.3l-0.2,7.9c-0.1,2.9-0.2,5.7-0.3,8.4c-0.2,2.8-0.4,5.4-0.5,7.8l-0.7,12.9
	c-0.1,1.4-0.1,2.6-0.1,3.6c0,1.3,0,2.2,0,2.9l-0.1,2.4c-0.1,1.8-0.9,3.4-2.2,4.4c-1,0.7-2.1,1.1-3.3,1c-1.3-0.1-2.4-0.6-3.2-1.4
	c-1.1-1.1-1.7-2.7-1.6-4.5l0.1-2.4c0-0.5,0-1.2,0-2.3c0-1.3,0-2.7,0.1-4.3l0.7-12.9c0.1-2.5,0.3-5.2,0.5-7.9c0.1-2.5,0.2-5.2,0.3-8
	l0.2-8c0-2.5,0-5.1,0-7.5c0-2.3,0-4.7,0.1-6.9c0-1.8,0.1-3.9,0.2-5.9c0-1.9,0.1-3.7,0.2-5.2l0.2-4c0.1-2,0.5-3.8,1.3-5.5l0.7-1.7
	c0.7-1.3,1.6-2.2,2.8-2.7c1.2-0.5,2.5-0.5,3.7,0c0.5,0.2,1.1,0.5,1.6,1c1.2,0.5,2,1.4,2.5,2.5c0.3,0.8,0.7,2.1,0.3,3.8l-0.1,0.5
	c0,0.3,0,0.7,0.1,1.5c0.1,0.8,0.3,1.9,0.6,3.4c0.4,1.6,0.8,3.4,1.3,5.2c0.5,1.7,1,3.6,1.6,5.6c0.5,2,1.1,4,1.6,6
	c0.5,2,1,4.1,1.5,6.2c0.6,2.2,1,4.5,1.4,6.7c0.4,2.1,0.8,4.4,1.1,6.5c0.1-0.8,0.3-1.7,0.5-2.6c0.4-2.1,0.8-4.2,1.2-6.3
	c0.4-2.3,0.9-4.6,1.6-6.9c0.6-2.2,1.1-4.3,1.6-6.3c0.5-2,1-4,1.5-5.9c0.5-1.9,1.1-3.8,1.7-5.5c0.4-1.2,0.7-2.4,1-3.4
	c0.2-1,0.4-1.9,0.5-2.6c0.1-0.9,0.2-1.6,0.3-2.2l0.1-1.7c0.1-1,0.4-2.9,2.1-4.3c1-0.8,2.2-1.2,3.5-1.1c1.2,0.1,2.4,0.7,3.2,1.6l0,0
	C93.9,157.3,94,159.1,93.9,160.1z M125.8,184.3c0,0.9-0.1,1.9-0.3,2.9c0,0.6,0,1.4,0,2.1c0,1.2,0,2.4,0,3.5c0,0.7,0,1.4,0,2l0,0.5
	c0,0.8-0.1,1.7,0,2.6l0,0.4c0,0.9-0.1,1.8,0,2.9c0,1.3,0,2.7-0.1,4c-0.1,1.5-0.2,2.8-0.3,3.8l-0.1,0.6c0,0-0.1,0.4-0.1,1.5l0,0.3
	c-0.1,1.5-0.2,2.9-0.4,4.3l-0.4,3.8c-0.1,1.2-0.2,2.3-0.3,3.5c-0.1,1.1-0.2,2.2-0.3,3.2c-0.1,0.7-0.2,1.5-0.2,2.4
	c-0.1,1.3-0.2,2.4-0.3,3.5c-0.1,0.9-0.3,1.7-0.4,2.5c-0.1,0.8-0.2,1.5-0.4,2.2L122,237c-0.3,1-0.7,2.1-1.2,3.4
	c-0.6,1.4-1.2,2.6-2,3.5c-0.8,1.1-1.9,2.1-3.2,2.9c-1.3,0.8-2.6,1.3-4.1,1.6c-0.9,0.2-1.7,0.2-2.6,0.2c-0.5,0-1-0.1-1.6-0.2
	c-1.5-0.3-2.8-0.9-3.9-1.9c-1.1-1-1.9-2.2-2.5-3.5c-0.4-0.8-0.7-1.8-0.9-2.9l0-0.2c0-0.2-0.1-0.4-0.1-0.7l-0.1-0.7
	c-0.1-0.4-0.1-0.8-0.2-1.3l-0.4-1.9c-0.2-1-0.3-2-0.4-3.1l0-0.3c0-0.8-0.1-1.5-0.2-2.2l0-0.4l-0.1-2.8c0-0.6-0.1-1.6-0.2-2.8l0-0.3
	l-0.1-7.5c0-1.1,0-2.3,0.1-3.7c0-1.4,0-2.8,0.1-4.1c0-1.4,0-2.7,0-3.8l0-0.3c0.1-1.2,0.1-2.5,0.1-4l0-3.9c-0.1-1.5-0.1-3,0-4.7
	l0.2-3.9c0-1.3,0-2.7,0.1-3.9l0.3-5.8c0.1-1.6,0.2-2.8,0.3-3.7c0.1-0.5,0.1-1,0.2-1.4c0.1-1,0.2-2.1,0.5-3.1c0.2-1,0.5-2.1,0.9-3.3
	c0.4-1.5,1-2.9,1.8-4.1c0.7-1.3,1.7-2.6,2.8-3.5c0.8-0.8,1.8-1.5,2.9-2.1c2.3-1.4,5.3-1.6,8.2-0.4l1,0.4c0.7,0.3,1.4,0.8,2,1.5
	c1.2,0.4,2.2,1.2,2.8,2.4l0.5,0.9c0.6,1,1,2,1.4,3l0.1,0.2c0.3,0.9,0.5,1.7,0.6,2.7c0.3,1.2,0.4,2.3,0.3,3.4l-0.1,1.2
	c0,0.5,0.1,1.1,0.1,1.8c0,0.4,0.1,1,0.2,1.5l0.1,0.6c0,0.9,0.1,1.7,0.1,2.4c0,0.7,0.1,1.6,0.1,2.8
	C125.8,182.1,125.8,183.2,125.8,184.3z"/>
<path class="st0" d="M115.3,181.6c0-1.1-0.1-2-0.1-2.6l0-0.5c0-0.2,0-0.5-0.1-1.1c-0.1-1-0.2-2-0.3-2.9l0-0.5c0-0.6,0-1.1,0-1.5
	c-0.1-0.7-0.1-1.5,0-2.2c0,0,0-0.1,0-0.1l-0.1-0.6c0-0.1,0-0.3-0.1-0.5l-0.2-0.5c0,0-0.1-0.2-0.2-0.4l-0.3-0.5l-0.3-0.1l-0.9-0.4
	c0,0,0,0-0.1,0c-0.2,0.2-0.5,0.4-0.7,0.6l-0.3,0.3c-0.1,0.1-0.3,0.2-0.5,0.6c-0.2,0.4-0.5,1-0.7,1.5c-0.2,0.6-0.3,1.3-0.5,2
	c0,0.3-0.1,0.7-0.1,1.1l-0.1,0.5c-0.1,0.5-0.1,1.1-0.2,1.6l-0.1,0.6c0,0.2-0.1,0.8-0.2,2.2l-0.3,5.9c-0.1,1-0.1,2.1-0.1,3.2l0,0.3
	l-0.2,4.3c-0.1,1.1,0,2.2,0,3.2l0,0.3l0,4.3c0,1.5,0,2.9-0.1,4.4c0,1,0,2.3,0,3.9l0,0.2c-0.1,1.2-0.1,2.4-0.1,3.7l0,0.3
	c-0.1,1.1-0.1,2.2-0.1,3.1c0,1.3,0,2.4,0.1,3.6c0,1.3,0,2.5,0,3.6c0.1,1.2,0.2,2.2,0.2,3.1l0,0.4c0,0.6,0,1.1,0.1,1.6l0,0.4
	c0,0.8,0.1,1.6,0.2,2.5l0,0.3c0,0.6,0.1,1.1,0.1,1.4l0.4,1.9c0.1,0.5,0.2,1.1,0.3,1.7c0.1,0.2,0.1,0.5,0.2,0.8
	c0.1,0,0.2-0.1,0.3-0.2l0.2-0.1c0.1-0.1,0.2-0.1,0.3-0.2c0.2-0.3,0.3-0.6,0.5-1.1c0.3-0.7,0.4-1.1,0.4-1.1l0.1-0.4
	c0.1-0.3,0.1-0.5,0.1-0.8l0.1-0.5c0.1-0.7,0.2-1.4,0.4-2.2c0.1-0.7,0.2-1.4,0.2-2.3c0.1-1.3,0.2-2.5,0.3-3.5
	c0.1-0.8,0.2-1.6,0.2-2.4l0-0.3c0.1-1,0.2-2.1,0.3-3.2l0.5-4.1c0.1-1.1,0.2-2.3,0.3-3.3c0-1.7,0.1-3.2,0.4-4.4c0-0.3,0.1-0.9,0.2-2
	c0.1-1.1,0.1-2.1,0.1-3.1c0-1.2,0-2.4,0.1-3.5c0-0.9,0-1.8,0-2.7c0-0.9,0-2,0-3.1c0-0.8,0-1.6,0-2.5c0-1.1,0-2.2,0-3.4l0-0.4
	c0.1-0.8,0.2-1.6,0.2-2.2c0-0.5,0-1-0.1-1.7L115.3,181.6z"/>
<path class="st0" d="M125.9,135l1,0.5c1.8,0.9,3.8,0.7,5.3-0.3c-1-0.2-2.1-0.3-3.2-0.2L125.9,135z"/>
<path class="st0" d="M207.3,64.2c15.9-1.3,25.1-6.8,27.6-24c2.1-14.3-7.2-30-23.9-29.2c-11.9,0.6-27.4,12.9-27.4,25.4
	C183.6,50.8,196,59.1,207.3,64.2z M214.8,30.8c7.3,5-0.2,19.8-8.9,12.9C198,37.4,206.9,26.7,214.8,30.8z"/>
<path class="st0" d="M244.8,84.7c-5.1-2.9-6.7-3.4-11-4.7c-0.8-0.2-1.6-0.5-2.6-0.8c-7.4-2.3-14.8-5-22-7.5c-9.8-3.5-20-7.2-30.2-10
	c-1.8-0.5-3.8-1.2-5.9-2c-6.6-2.4-14-5.2-19.8-2.5l-0.1,0c-4.5,2.5-5.3,5.8-5.1,8.2c0.4,6.3,7.3,12.4,11.9,14.2
	c4.2,1.7,6.9,2.3,10.3,3.1c1.4,0.3,2.9,0.7,4.8,1.2c2.7,0.7,5.6,1.5,8.3,2.4c0.8,0.2,1.4,0.4,2,0.6c2.7,0.8,2.7,0.8,3.3,3.5
	c1,4.1-0.1,10-1,15.2c-0.4,2-0.7,3.8-0.9,5.5c-4,33.3-4.8,62-4.8,100.4c0,4,0.1,8.1,0.1,12c0.1,5.6,0.2,11.4,0.1,17.1
	c0,2.3-0.4,4.7-0.8,7.4c-0.7,4.8-1.5,9.7-0.3,14.1c1.4,5.1,5.8,8.5,11.2,8.9c0.3,0,0.5,0,0.8,0c5,0,9.3-2.9,11.2-7.4
	c1.6-4,1.7-9.5,1.9-14.4c0-1.4,0.1-2.8,0.1-4c0.8-13.8,0.5-26.6,0.2-38.9c-0.3-13.2-0.7-26.9,0.4-41.7c0.7-9.6,1.6-19.4,2.5-28.8
	c1.2-12.8,2.5-26,3.2-39.1c3.3,1.1,5.7,1.8,8,2.5c2.6,0.8,5.3,1.5,9.2,2.9c1.3,0.5,2.7,1.1,4.3,1.9c4.6,2.2,9.9,4.7,14.6,2.4
	c4.3-2,5.3-5.1,5.4-7.4C254.2,93.5,249.4,87.3,244.8,84.7z"/>
</svg>
