<?xml version="1.0" encoding="utf-8"?>
<!-- Generator: Adobe Illustrator 22.1.0, SVG Export Plug-In . SVG Version: 6.00 Build 0)  -->
<svg version="1.1" id="Layer_1" xmlns="http://www.w3.org/2000/svg" xmlns:xlink="http://www.w3.org/1999/xlink" x="0px" y="0px"
	 viewBox="0 0 480 280" style="enable-background:new 0 0 480 280;" xml:space="preserve">
<style type="text/css">
	.st0{fill:none;}
	.st1{fill:#4AB7C3;}
	.st2{fill:#6D78B1;}
</style>
<g>
	<path class="st0" d="M74.9,33.4c-1.4-8.2-17.2-5.6-14.1,3.4C64,45.9,75,41.6,74.9,33.4z"/>
	<path class="st0" d="M402.3,55.4c7.9,6.3,14.7-7.2,8.1-11.7C403.2,40,395.1,49.7,402.3,55.4z"/>
	<path class="st1" d="M73.7,58.8c10.3-3,18.8-17.3,17.8-27.5c-1.4-15.3-15.5-20-28.9-18C46.4,15.6,44.1,26.9,44,41.6
		C51.3,50.6,60.2,62.7,73.7,58.8z M74.9,33.4C75,41.6,64,45.9,60.8,36.9C57.7,27.8,73.5,25.3,74.9,33.4z"/>
	<path class="st1" d="M120.1,72.4c0-0.8,0.2-1.5,0.6-2.2c0.1-0.1,0.1-0.2,0.2-0.3c0.2-1.6,0-2.9-0.3-3.8c-1.2-3.4-4.8-6-8.8-6.2
		c-5.3-0.3-11.3,0.7-17,1.8L93,62c-5.5,1-10.1,1.8-14.7,2.5c-9.5,1.6-17.8,3-29.6,5.5c-1.6,0.4-3.7,0.6-5.9,1
		c-7.5,1.1-16.9,2.4-22.5,7.5l0,0c-5.5,5.4-5.3,9.4-4.1,11.9c1.9,3.9,7.2,5.8,11.4,5.4c4.2-0.4,8.7-1.5,13-2.6
		c1.7-0.4,3.5-0.9,5.3-1.2l0.1,0c2.7-0.6,5.4-1.2,8-1.6c0.8-0.1,1.4-0.3,2-0.4c1-0.2,1.9-0.4,2.1-0.3c0.2,0.2,0.5,1.2,0.6,1.6
		c0.8,2.7,0.1,4.8-0.8,7.5c-0.5,1.6-1.1,3.3-1.4,5.4c-4.4,30.2-5.5,42.9-6,77.8c-0.1,3.6,0,7.4,0,10.9c0,5.1,0.1,10.4-0.1,15.5
		c-0.1,2-0.5,4.3-0.9,6.7c-0.8,4.3-1.6,8.8-0.5,12.8c1.3,4.6,5.5,7.8,10.8,8.2c0.4,0,0.7,0,1,0c4.7,0,8.8-2.5,10.7-6.5
		c1.6-3.6,1.8-8.7,2-13.1c0.1-1.3,0.1-2.6,0.2-3.7c1-12.5,0.8-24.1,0.7-35.4c-0.2-12-0.3-11.1,0.9-24.5c0.7-7.8,1.6-15.9,2.5-24.6
		c1.5-14,3.1-28.5,4-42c3.5-0.5,5.7-1.3,7.8-2c2.3-0.7,4.5-1.5,8.3-2c1.3-0.2,2.7-0.2,4.1-0.3c4.5-0.1,9.5-0.3,14-4.3
		C118.1,75.9,119.4,74,120.1,72.4z"/>
	<path class="st1" d="M120.6,74.6l19,43.2c1.1,2.6,4.1,3.7,6.7,2.4l24.9-12c1.1-0.5,2-1.4,2.5-2.5c0.7-1.4,0.8-3,0.1-4.5l-19-43.2
		c-1.1-2.6-4.1-3.7-6.7-2.4l-24.9,12c-1,0.5-1.8,1.2-2.3,2.1c-0.1,0.8-0.3,1.6-0.7,2.5C120.1,73.1,120.3,73.9,120.6,74.6z"/>
	<path class="st1" d="M120.1,72.4c0.4-0.9,0.6-1.7,0.7-2.5c-0.1,0.1-0.1,0.2-0.2,0.3C120.4,70.9,120.2,71.6,120.1,72.4z"/>
	<path class="st1" d="M205.4,136.7l-75.3-0.7c-3.4,0-6.4,0.8-8.8,2.3c-3.1,1.9-5,4.9-4.9,8.3l4.1,99.1c0.2,5.9,6.7,10.8,14.5,10.9
		l75.3,0.7c3.4,0,6.4-0.8,8.8-2.3c3.1-1.9,5-4.9,4.9-8.3l-4.1-99.1C219.7,141.6,213.2,136.7,205.4,136.7z M151.9,165.6l-0.4,1.1
		c0,0.1-0.1,0.3-0.3,1l-0.1,0.3c-0.2,0.9-0.4,2-0.7,3.3c-0.3,1.4-0.5,2.9-0.7,4.4c-0.3,1.8-0.6,3.5-1,5.5c-0.4,2-0.8,4.2-1.4,6.5
		c-0.4,1.7-0.8,3.6-1.1,5.7c-0.4,2.4-0.8,4.6-1.2,6.7c-0.3,1.8-0.6,3.9-0.9,5.8l-1.1,6.4c-0.3,1.9-0.6,3.6-0.8,5.1
		c-0.2,1.5-0.4,2.8-0.5,4.1c-0.1,1.4-0.3,2.6-0.4,3.6c-0.1,0.8-0.1,1.7-0.1,2.4c0,0.7,0,1.3,0,1.7v1.3c0,0.9-0.1,1.8-0.4,2.6
		l-0.2,0.6c-0.3,1.2-0.9,2.2-2,2.8c-0.7,0.5-1.5,0.7-2.3,0.7c-0.3,0-0.5,0-0.8-0.1c-1.2-0.2-2.2-0.8-2.9-1.9
		c-0.8-1.1-1.1-2.5-0.9-3.9l0.3-1l0-1.2c0-0.5,0-1.3,0.1-2.2c0-1,0.1-2,0.3-3c0.1-0.9,0.2-2.1,0.3-3.5c0.1-1.4,0.3-3,0.5-4.6
		c0.2-1.5,0.5-3.3,0.9-5.5c0.4-2.1,0.8-4,1-6c0.1-0.6,0.2-1.2,0.3-1.8c-0.2-0.3-0.3-0.7-0.3-1.1l-0.1-0.6l-0.4-1.1
		c-0.4-0.8-0.8-2-1.2-3.4c-0.3-1.3-0.6-2.6-1-3.9c-0.4-1.4-0.7-2.8-1.1-4.2c-0.4-1.4-0.7-3-1.1-4.7c-0.4-1.7-0.7-3.2-1.1-4.7
		c-0.3-1.4-0.6-2.8-1-4.2c-0.4-1.4-0.8-2.8-1.1-4.2c-0.3-1.4-0.5-2.6-0.7-3.7c-0.2-1.3-0.2-2.7,0-4.2l0.1-1.4c0.1-1,0.6-2.2,1.8-3.2
		c0.9-0.7,1.9-1,3-1c1.2,0.1,2.2,0.5,3,1.4c1,1.1,1.5,2.5,1.3,4l-0.1,1.6c-0.1,0.4-0.1,0.8,0,1.1l0,0.3c0.1,0.7,0.2,1.6,0.4,2.6
		c0.3,1.1,0.6,2.4,1,3.7l1.1,4.6c0.3,1.5,0.6,2.9,1,4.6c0,0.2,0.1,0.3,0.1,0.5c0.2-0.8,0.3-1.7,0.4-2.4c0.4-2,0.7-3.8,1-5.3l0.8-4.7
		c0.3-1.5,0.5-2.8,0.7-3.8c0.2-1.1,0.5-2.1,0.8-2.8l0.3-0.8c0.3-0.8,0.9-1.9,2.3-2.6c1-0.5,2.1-0.5,3.1-0.2c1.1,0.3,2,1,2.6,2
		C152.1,162.6,152.3,164.2,151.9,165.6z M179.4,170.2c-0.8,0.7-1.8,1-2.8,1h-7.4c0,0,0,0,0,0v4.2c-0.1,1.8-0.1,3.6-0.1,5.5
		c-0.1,2-0.1,4.1-0.2,6.4v0c-0.1,2.5-0.3,4.9-0.7,7.3l-0.3,2.1c0.4,0,0.7,0,1.1,0.1c0.6,0.1,1,0.1,1.4,0.1c0.2,0,0.5,0,1.1-0.1
		l1.1-0.3c1-0.3,2.1-0.1,3.1,0.4c1.5,0.8,2.1,2.1,2.3,3c0.3,1.4,0.1,2.8-0.6,4c-0.6,1.1-1.6,1.8-2.9,2l-1.1,0.2
		c-2,0.5-3.5,0.5-5.1,0.3l-1.3,0c-0.1,0-0.2,0-0.3,0c0,0.1,0,0.2,0,0.4c-0.1,1.9-0.2,3.7-0.3,5.4c0,1.5,0,2.9,0.1,4.2
		c0.1,1.3,0.2,2.6,0.3,3.7c0.1,1.2,0.3,2.1,0.4,2.9c0.1,0.3,0.1,0.6,0.2,0.9c0.4,0,0.7-0.1,1-0.1c1-0.1,1.7-0.1,2.3-0.2l0.2,0
		c0.5,0,0.8,0,1.2,0c0.3,0,0.7-0.1,1.1-0.1l0.8-0.2c1.1-0.1,2,0.1,2.9,0.6c1.4,0.8,2,2.1,2.2,3.1c0.4,1.6,0,3.2-1,4.4
		c-0.7,0.8-1.5,1.3-2.5,1.6l-1,0.1c-0.6,0.1-1.1,0.1-1.6,0.2c-0.6,0.1-1.2,0.1-1.8,0.1c-0.4,0.1-1,0.1-1.8,0.2
		c-0.7,0.1-1.6,0.2-2.5,0.3c-0.4,0-0.8,0.1-1.2,0.1c-0.9,0-1.8-0.1-2.6-0.3c-4.3-0.9-4.8-4.2-4.8-5.6c0-0.5,0-1.1,0.1-1.9
		c0-0.2-0.1-0.7-0.1-1.2c-0.2-0.9-0.4-2.2-0.6-3.6c-0.1-1.4-0.3-2.8-0.3-4.4c-0.1-1.5-0.1-3.1-0.1-5c0.1-1.9,0.2-3.8,0.4-6
		c0.2-2.1,0.4-4.3,0.7-6.5c0.3-2.2,0.6-4.5,1-6.7c0.3-1.9,0.5-3.8,0.5-5.8c0.1-2.3,0.1-4.4,0.2-6.4c0-1.9,0-3.8,0.1-5.5l0-4.2
		c0-1.4,0-2.5,0.1-3.3l0.2-1.2c0-0.5,0.2-1.1,0.4-1.6c0.6-1.8,2-3,3.9-3.2l0.9,0c0.4-0.1,0.9-0.1,1.4-0.2c0.8-0.1,1.5-0.1,2.2-0.1
		h7.3c1.1,0,2.1,0.4,2.9,1.1c1.4,1.3,1.7,2.9,1.7,3.8C181.1,167.3,180.9,169,179.4,170.2z M216,217.2c-0.1,1.3-0.3,2.5-0.6,3.6
		c-0.3,1.1-0.7,2.4-1.2,3.7l-0.1,0.2c-0.6,1.1-1.2,2.1-1.7,3l-0.1,0.2c-0.8,1.1-1.6,2-2.4,2.7c-0.8,0.7-1.5,1.3-2.2,1.8l-0.2,0.1
		c-0.8,0.4-1.5,0.8-2.3,1.1c-0.8,0.3-1.8,0.6-2.9,0.9c-1.1,0.3-1.9,0.4-2.4,0.5c-0.4,0.1-0.9,0.1-1.4,0.1s-1,0-1.6-0.1l-0.8-0.1
		c-1.2-0.1-2.2-0.7-2.9-1.7c-1.2-1.6-1.2-3.2-1-4.1c0.2-1.4,1-2.6,2.2-3.3c0.9-0.6,1.9-0.8,2.9-0.7l1.1,0.2l0.1,0
		c0.3,0,0.8-0.1,1.8-0.4c0.8-0.2,1.4-0.3,1.8-0.5c0.2-0.1,0.6-0.3,0.9-0.5l0.2-0.1c0.2-0.1,0.6-0.3,1.1-0.8c0.3-0.3,0.6-0.6,0.9-1
		c0.3-0.5,0.6-1.1,1-1.9c0.5-0.9,0.6-1.4,0.7-1.7l0-0.2c0.2-0.6,0.3-1.2,0.3-1.9c0.1-0.8,0.1-1.5,0.1-2.1c-0.1-0.5-0.2-1.2-0.3-2
		c-0.2-0.9-0.4-1.8-0.7-2.7c-0.3-0.8-0.7-1.6-1.2-2.4c-0.5-0.8-1-1.5-1.7-2.3c-0.8-0.9-1.9-1.9-3-2.9c-1.3-1.1-2.9-2.4-4.6-3.8
		c-1.9-1.6-3.3-2.8-4.1-3.8c-0.9-1-1.7-2-2.4-3.2l0,0c-0.9-1.4-1.6-3-2.1-4.8c-0.5-1.9-0.8-3.7-0.7-5.6c0.2-1.8,0.6-3.5,1.1-5.2
		c0.6-1.6,1.3-3.2,2.2-4.6c0.9-1.4,1.9-2.6,3-3.6c1.1-1.2,2.4-2.1,3.8-2.7c1.4-0.6,2.9-1,4.6-1.2c1.6-0.2,3.1-0.1,4.3,0.3
		c1,0.2,1.9,0.6,2.7,1.1l0.8,0.4c1.2,0.7,1.9,1.7,2.2,3.1c0.3,1.5,0,3.1-0.8,4.2c-0.7,0.9-1.6,1.5-2.7,1.7c-1,0.2-2,0-2.9-0.5
		l-1.1-0.5c0,0-0.1-0.1-0.5-0.2c-0.3-0.1-0.7-0.1-1.2,0c-0.6,0.1-1.2,0.3-1.7,0.5c-0.4,0.2-0.8,0.4-1.1,0.8
		c-0.6,0.6-1.2,1.4-1.8,2.3c-0.5,0.7-0.9,1.6-1.2,2.5c-0.3,0.8-0.5,1.6-0.5,2.4c0,0.6,0,1.2,0.3,1.8l0.1,0.2c0.2,0.8,0.5,1.4,0.8,2
		c0.5,0.8,1.1,1.5,1.7,2.2c0.3,0.3,1.1,1.1,3.1,2.8c1.8,1.4,3.3,2.7,4.7,3.9c1.5,1.3,2.8,2.5,3.8,3.6c1.1,1.3,2.1,2.6,2.9,3.9
		c0.8,1.4,1.5,2.7,2,4.1c0.5,1.3,0.8,2.6,1.1,4c0.3,1.3,0.5,2.6,0.5,3.7l0,0.2C216.1,215,216.1,216.1,216,217.2z"/>
	<path class="st2" d="M353.6,86.3l-24.9-12c-2.6-1.2-5.6-0.2-6.7,2.4l-19,43.2c-0.6,1.5-0.5,3.1,0.1,4.5c0.5,1,1.4,1.9,2.5,2.5
		l23.9,11.5l2.8,0c1,0,2,0.1,2.9,0.2c0.8-0.5,1.5-1.2,1.9-2.2l19-43.2c0.6-1.5,0.5-3.1-0.1-4.5C355.5,87.7,354.7,86.8,353.6,86.3z"
		/>
	<path class="st2" d="M330.5,138.8l-0.9-0.4l-70.6,0.6c-7.6,0.1-13.9,4.8-14.2,10.6l-4,96.5c-0.1,3.3,1.7,6.2,4.8,8.1
		c2.3,1.4,5.3,2.3,8.6,2.2l73.4-0.7c7.6-0.1,13.9-4.8,14.2-10.6l4-96.5c0.1-3.3-1.7-6.2-4.8-8.1c-1.6-1-3.5-1.7-5.6-2
		C333.9,139.4,332.1,139.6,330.5,138.8z M300.5,161.2l-0.2,3c0,0.1-0.1,0.5-0.2,1.5c-0.1,1-0.4,2.2-0.7,3.4
		c-0.3,1.2-0.7,2.6-1.1,4.1c-0.4,1.4-0.9,2.9-1.4,4.5c-0.4,1.5-0.9,3.1-1.2,4.8c-0.5,2-1,4-1.5,6c-0.5,1.9-1,3.8-1.3,5.5
		c-0.3,1.7-0.7,3.8-1.1,5.8c-0.4,1.8-0.6,3.4-0.8,4.8c-0.2,1.8-0.4,3.7-0.8,5.6c-0.3,1.7-0.6,3.3-0.8,5c-0.2,1.9-0.6,3.8-1,5.8
		c-0.4,2-0.8,3.8-1.2,5.4c-0.4,1.7-0.8,3-0.9,4.2l-0.2,1.1l-2.9,3.2c-2,1.5-3.5,1.3-4.4,0.9c-0.8-0.4-1.8-1.3-2.3-3.3l-0.1-0.5
		c0-0.4-0.1-0.6-0.1-0.9c-0.1-0.4-0.2-0.8-0.3-1.2c-0.2-0.6-0.3-1.3-0.3-2c-0.1-0.5-0.2-1.2-0.3-2c-0.1-0.7-0.2-1.6-0.3-2.5
		c-0.2-0.9-0.3-2.1-0.4-3.3l0-0.2c0-0.9-0.1-2-0.2-3.2c-0.2-1.4-0.4-2.9-0.6-4.6c-0.2-1.5-0.4-3.3-0.5-5.3c-0.2-1.6-0.4-3.4-0.6-5.2
		c-0.2-1.7-0.5-3.5-0.9-5.4c-0.3-1.6-0.7-3.3-1.1-4.8l-0.2,7.2c-0.1,2.6-0.2,5.2-0.3,7.6c-0.2,2.6-0.4,4.9-0.5,7.1l-0.6,11.8
		c-0.1,1.2-0.1,2.3-0.1,3.2c0,1.2,0,2,0,2.7l-0.1,2.2c-0.1,1.7-0.8,3.1-2,4c-0.9,0.7-1.9,1-3,0.9c-1.1-0.1-2.2-0.5-2.9-1.3
		c-1-1-1.5-2.5-1.4-4.1l0.1-2.1c0-0.4,0-1.1,0-2.1c0-1.2,0-2.5,0.1-3.9l0.6-11.8c0.1-2.3,0.3-4.7,0.5-7.2c0.1-2.2,0.2-4.7,0.3-7.2
		l0.2-7.3c0-2.3,0-4.6,0-6.8c0-2.1,0-4.3,0.1-6.2c0-1.6,0.1-3.5,0.2-5.4c0-1.7,0.1-3.3,0.1-4.7l0.2-3.6c0.1-1.8,0.5-3.5,1.2-5
		l0.6-1.6c0.6-1.2,1.5-2,2.5-2.4c1.1-0.5,2.3-0.5,3.4,0c0.5,0.2,1,0.5,1.4,0.9c1,0.5,1.8,1.3,2.3,2.3c0.3,0.7,0.6,1.9,0.3,3.5
		l-0.1,0.5c0,0.2,0,0.7,0.1,1.4c0.1,0.7,0.3,1.8,0.6,3.1c0.4,1.5,0.7,3.1,1.2,4.7c0.5,1.6,1,3.3,1.4,5.1c0.5,1.8,1,3.6,1.4,5.5
		c0.5,1.8,0.9,3.7,1.4,5.6c0.5,2,0.9,4.1,1.3,6.1c0.4,1.9,0.7,4,1,5.9c0.1-0.8,0.3-1.5,0.4-2.3c0.4-1.9,0.8-3.8,1.1-5.7
		c0.4-2,0.9-4.2,1.4-6.3c0.5-2,1-3.9,1.5-5.7c0.5-1.8,0.9-3.6,1.4-5.3c0.5-1.8,1-3.4,1.5-5c0.4-1.1,0.7-2.2,0.9-3.1
		c0.2-0.9,0.4-1.7,0.5-2.4c0.1-0.8,0.2-1.5,0.3-2l0.1-1.5c0-0.9,0.4-2.6,1.9-3.9c0.9-0.8,2-1.1,3.2-1c1.1,0.1,2.2,0.6,2.9,1.5l0,0
		C300.5,158.7,300.6,160.3,300.5,161.2z M329.5,183.2c0,0.8-0.1,1.7-0.2,2.6c0,0.6,0,1.2,0,1.9c0,1.1,0,2.1,0,3.2c0,0.7,0,1.3,0,1.8
		l0,0.4c0,0.8,0,1.6,0,2.4l0,0.3c0,0.8-0.1,1.7,0,2.6c0,1.2,0,2.4-0.1,3.7c-0.1,1.4-0.2,2.5-0.3,3.4l-0.1,0.5c0,0-0.1,0.4-0.1,1.3
		l0,0.3c-0.1,1.3-0.2,2.7-0.3,3.9l-0.4,3.4c-0.1,1.1-0.1,2.1-0.3,3.1c-0.1,1-0.1,2-0.3,2.9c-0.1,0.7-0.2,1.4-0.2,2.2
		c-0.1,1.2-0.2,2.2-0.3,3.2c-0.1,0.8-0.2,1.6-0.3,2.2c-0.1,0.7-0.2,1.4-0.3,2l-0.1,0.4c-0.3,0.9-0.6,1.9-1.1,3.1
		c-0.5,1.3-1.1,2.4-1.8,3.2c-0.7,1-1.7,1.9-2.9,2.6c-1.2,0.7-2.4,1.2-3.7,1.4c-0.8,0.1-1.6,0.2-2.3,0.1c-0.5,0-0.9-0.1-1.4-0.2
		c-1.4-0.3-2.5-0.9-3.5-1.7c-1-0.9-1.8-2-2.3-3.2c-0.3-0.8-0.6-1.7-0.8-2.6l0-0.2c0-0.2-0.1-0.4-0.1-0.6l-0.1-0.6
		c0-0.4-0.1-0.8-0.2-1.2l-0.3-1.7c-0.2-1-0.3-1.8-0.4-2.8l0-0.3c0-0.7-0.1-1.4-0.2-2l0-0.4l-0.1-2.6c0-0.6-0.1-1.5-0.2-2.5l0-0.3
		l-0.1-6.8c0-1,0-2.1,0.1-3.3c0-1.3,0-2.5,0.1-3.8c0-1.3,0-2.4,0-3.4l0-0.3c0.1-1.1,0.1-2.3,0.1-3.6l0-3.5c-0.1-1.3-0.1-2.8,0-4.2
		l0.2-3.5c0-1.2,0-2.4,0.1-3.5l0.3-5.3c0.1-1.4,0.2-2.5,0.3-3.4c0.1-0.5,0.1-0.9,0.1-1.3c0-0.9,0.2-1.9,0.4-2.8
		c0.1-0.9,0.4-1.9,0.8-3c0.4-1.3,0.9-2.6,1.7-3.8c0.7-1.2,1.6-2.3,2.6-3.2c0.8-0.7,1.7-1.4,2.6-1.9c2.1-1.3,4.8-1.4,7.4-0.4l0.9,0.4
		c0.7,0.2,1.3,0.7,1.8,1.3c1.1,0.4,2,1.1,2.6,2.2l0.5,0.8c0.5,0.9,0.9,1.8,1.3,2.7l0.1,0.2c0.2,0.8,0.4,1.6,0.5,2.4
		c0.2,1.1,0.3,2.1,0.3,3l-0.1,1.1c0,0.4,0.1,1,0.1,1.7c0,0.4,0.1,0.9,0.2,1.3l0.1,0.6c0,0.8,0.1,1.5,0.1,2.2c0,0.6,0.1,1.5,0.1,2.5
		C329.5,181.2,329.5,182.2,329.5,183.2z"/>
	<path class="st2" d="M320,180.8c0-1,0-1.8-0.1-2.4l0-0.5c0-0.2,0-0.5-0.1-1c-0.1-0.9-0.2-1.8-0.3-2.7l0-0.4c0-0.5,0-1,0-1.3
		c-0.1-0.7-0.1-1.3,0-2c0,0,0-0.1,0-0.1l-0.1-0.5c0-0.1,0-0.3-0.1-0.4l-0.1-0.4c0,0,0-0.2-0.2-0.4l-0.3-0.5l-0.2-0.1l-0.8-0.4
		c0,0,0,0-0.1,0c-0.2,0.1-0.4,0.3-0.7,0.5l-0.3,0.3c-0.1,0.1-0.3,0.2-0.5,0.6c-0.2,0.4-0.4,0.9-0.6,1.4c-0.1,0.6-0.3,1.2-0.5,1.8
		c0,0.3-0.1,0.7-0.1,1l0,0.5c-0.1,0.5-0.1,1-0.2,1.5l-0.1,0.5c0,0.2-0.1,0.7-0.2,2l-0.3,5.4c0,0.9-0.1,1.9-0.1,2.9l0,0.3l-0.2,3.9
		c-0.1,1,0,2,0,3l0,0.3l0,3.9c0,1.3,0,2.7-0.1,4c0,0.9,0,2.1,0,3.6l0,0.2c-0.1,1.1-0.1,2.2-0.1,3.4l0,0.2c-0.1,1-0.1,2,0,2.8
		c0,1.2,0,2.2,0,3.3c0,1.2,0,2.2,0,3.2c0.1,1.1,0.1,2,0.2,2.8l0,0.4c0,0.5,0,1,0.1,1.5l0,0.4c0,0.7,0.1,1.4,0.2,2.2l0,0.3
		c0,0.5,0.1,1,0.1,1.3l0.3,1.7c0.1,0.5,0.2,1,0.3,1.5c0.1,0.2,0.1,0.5,0.1,0.7c0.1,0,0.2-0.1,0.3-0.2l0.2-0.1
		c0.1-0.1,0.2-0.1,0.3-0.2c0.1-0.3,0.3-0.6,0.5-1c0.3-0.7,0.4-1,0.4-1l0.1-0.4c0.1-0.2,0.1-0.4,0.1-0.7l0-0.5c0.1-0.6,0.2-1.3,0.3-2
		c0.1-0.6,0.2-1.3,0.2-2.1c0.1-1.2,0.2-2.2,0.3-3.2c0.1-0.7,0.2-1.4,0.2-2.2l0-0.3c0.1-0.9,0.2-1.9,0.2-2.9l0.4-3.7
		c0.1-1,0.2-2.1,0.3-3c0-1.6,0.1-2.9,0.4-4c0-0.3,0.1-0.8,0.2-1.8c0.1-1,0.1-1.9,0-2.8c0-1.1,0-2.2,0-3.2c0-0.8,0-1.7,0-2.5
		c0-0.8,0-1.8,0-2.8c0-0.7,0-1.4,0-2.2c0-1,0-2,0-3.1l0-0.4c0.1-0.8,0.2-1.4,0.2-2c0-0.4,0-0.9-0.1-1.5L320,180.8z"/>
	<path class="st2" d="M329.5,138.4l0.9,0.4c1.6,0.8,3.4,0.6,4.8-0.2c-0.9-0.1-1.9-0.2-2.9-0.2L329.5,138.4z"/>
	<path class="st2" d="M403.6,74c14.4-1.2,22.8-6.2,25.1-21.8c1.9-13-6.5-27.3-21.7-26.5c-10.8,0.5-24.9,11.7-24.9,23.1
		C382,61.9,393.3,69.4,403.6,74z M410.4,43.7c6.6,4.5-0.1,18-8.1,11.7C395.1,49.7,403.2,40,410.4,43.7z"/>
	<path class="st2" d="M437.7,92.7c-4.6-2.6-6.1-3.1-10-4.3c-0.7-0.2-1.5-0.4-2.3-0.7c-6.7-2.1-13.5-4.5-20-6.9
		c-8.9-3.2-18.2-6.5-27.5-9.1c-1.6-0.4-3.5-1.1-5.4-1.8c-6-2.2-12.7-4.7-18-2.2l-0.1,0c-4.1,2.2-4.8,5.3-4.6,7.4
		c0.4,5.7,6.6,11.2,10.9,12.9c3.9,1.5,6.3,2.1,9.3,2.8c1.3,0.3,2.6,0.6,4.3,1.1c2.5,0.7,5.1,1.3,7.5,2.1c0.7,0.2,1.3,0.4,1.8,0.6
		c2.4,0.7,2.4,0.7,3,3.2c0.9,3.7-0.1,9.1-0.9,13.8c-0.3,1.8-0.6,3.5-0.8,5c-3.6,30.2-4.4,56.4-4.4,91.2c0,3.6,0.1,7.4,0.1,10.9
		c0.1,5.1,0.2,10.4,0.1,15.5c0,2-0.4,4.3-0.8,6.7c-0.7,4.4-1.4,8.9-0.3,12.8c1.3,4.6,5.2,7.8,10.2,8c0.2,0,0.5,0,0.7,0
		c4.5,0,8.5-2.6,10.1-6.8c1.5-3.6,1.6-8.7,1.7-13.1c0-1.3,0.1-2.6,0.1-3.7c0.7-12.5,0.4-24.1,0.1-35.4c-0.3-12-0.6-24.4,0.3-37.9
		c0.6-8.7,1.5-17.6,2.3-26.2c1.1-11.6,2.3-23.6,2.9-35.5c3,1,5.2,1.7,7.3,2.3c2.3,0.7,4.8,1.4,8.3,2.6c1.2,0.4,2.5,1,3.9,1.7
		c4.2,2,9,4.2,13.3,2.2c3.9-1.8,4.9-4.7,4.9-6.7C446.2,100.6,441.8,95.1,437.7,92.7z"/>
</g>
</svg>
