<?xml version="1.0" encoding="iso-8859-1"?>
<!-- Generator: Adobe Illustrator 22.1.0, SVG Export Plug-In . SVG Version: 6.00 Build 0)  -->
<svg version="1.1" id="Capa_1" xmlns="http://www.w3.org/2000/svg" xmlns:xlink="http://www.w3.org/1999/xlink" x="0px" y="0px"
	 viewBox="-49 141 512 512" style="enable-background:new -49 141 512 512;" xml:space="preserve">
<g>
	<path style="fill:#4AB7C3;" d="M408.411,277.987c-9.958-10.366-23.521-16.073-38.211-16.073h-59.752
		c-1.345-9.586-5.739-18.388-12.512-24.798c-8.294-8.256-19.276-12.802-30.937-12.802H147c-11.953,0-23.108,4.573-31.411,12.875
		c-6.797,6.796-11.094,15.409-12.43,24.725H43.8c-14.718,0-28.304,5.728-38.267,16.132c-10.182,10.211-16.019,24.113-16.019,38.155
		v199.2c0,14.72,5.729,28.307,16.134,38.269c10.21,10.181,24.111,16.018,38.152,16.018h326.4c14.721,0,28.309-5.729,38.271-16.136
		c10.179-10.211,16.016-24.111,16.016-38.15V316.2C424.487,301.509,418.779,287.944,408.411,277.987z M293.4,297.287H370.6
		c5.146,0,9.775,1.91,13.39,5.524c3.613,3.614,5.523,8.245,5.523,13.39v192.113h-0.399v7.087c0,5.146-1.91,9.774-5.524,13.389
		s-8.244,5.524-13.389,5.524H43.8c-5.144,0-9.774-1.91-13.389-5.524c-3.614-3.614-5.525-8.244-5.525-13.389V316.2
		c0-5.145,1.911-9.775,5.524-13.389c3.614-3.614,8.244-5.524,13.389-5.524H121c9.863,0,17.886-8.024,17.886-17.887v-11.6
		c0-2.492,0.826-4.689,2.325-6.189c1.499-1.499,3.696-2.324,6.188-2.324H267c2.492,0,4.69,0.826,6.189,2.324
		c1.498,1.499,2.323,3.697,2.323,6.189v11.6C275.513,289.263,283.537,297.287,293.4,297.287z"/>
	<path style="fill:#4AB7C3;" d="M132.389,341.189c-19.911,19.91-30.875,46.407-30.875,74.61c0,27.794,11.253,54.989,30.875,74.611
		c19.91,19.91,46.407,30.876,74.611,30.876c27.794,0,54.989-11.254,74.61-30.876c19.911-19.911,30.877-46.408,30.877-74.611
		c0-27.795-11.254-54.989-30.877-74.61c-19.621-19.623-46.815-30.876-74.61-30.876C179.206,310.313,152.011,321.567,132.389,341.189
		z M207,485.913c-18.34,0-35.89-7.229-49.424-20.359c-13.083-13.103-20.29-30.628-20.29-49.354c0-18.34,7.231-35.892,20.361-49.426
		c13.103-13.084,30.627-20.288,49.353-20.288c18.34,0,35.891,7.231,49.426,20.361c13.084,13.102,20.287,30.626,20.287,49.353
		l0.002,0.134c0.345,18.293-6.86,35.771-20.289,49.218C242.892,478.683,225.34,485.913,207,485.913z"/>
	<path style="fill:#4AB7C3;" d="M349.4,363.287c14.715,0,26.687-11.971,26.687-26.687s-11.972-26.687-26.687-26.687
		c-14.716,0-26.688,11.971-26.688,26.687S334.685,363.287,349.4,363.287z"/>
</g>
</svg>
