<?xml version="1.0" encoding="utf-8"?>
<!-- Generator: Adobe Illustrator 22.1.0, SVG Export Plug-In . SVG Version: 6.00 Build 0)  -->
<svg version="1.1" id="Layer_1" xmlns="http://www.w3.org/2000/svg" xmlns:xlink="http://www.w3.org/1999/xlink" x="0px" y="0px"
	 viewBox="0 0 38.8 38.8" style="enable-background:new 0 0 38.8 38.8;" xml:space="preserve">
<style type="text/css">
	.st0{fill:#707070;}
</style>
<path class="st0" d="M25.7,5C20-0.7,10.7-0.7,5,5c-5.7,5.7-5.7,15,0,20.7c5.1,5.1,13,5.6,18.7,1.7c0.1,0.6,0.4,1.1,0.8,1.6l8.3,8.3
	c1.2,1.2,3.2,1.2,4.4,0c1.2-1.2,1.2-3.2,0-4.4l-8.3-8.3c-0.4-0.4-1-0.7-1.6-0.8C31.3,18,30.8,10.1,25.7,5L25.7,5z M23.1,23.1
	c-4.3,4.3-11.2,4.3-15.5,0c-4.3-4.3-4.3-11.2,0-15.5c4.3-4.3,11.2-4.3,15.5,0C27.3,11.9,27.3,18.8,23.1,23.1L23.1,23.1z M23.1,23.1"
	/>
</svg>
