<?xml version="1.0" encoding="utf-8"?>
<!-- Generator: Adobe Illustrator 22.1.0, SVG Export Plug-In . SVG Version: 6.00 Build 0)  -->
<svg version="1.1" id="Layer_1" xmlns="http://www.w3.org/2000/svg" xmlns:xlink="http://www.w3.org/1999/xlink" x="0px" y="0px"
	 viewBox="0 0 38.8 38.8" style="enable-background:new 0 0 38.8 38.8;" xml:space="preserve">
<style type="text/css">
	.st0{fill:#FFFFFF;}
</style>
<path class="st0" d="M35.3,21h-3.7v3.8c0,0.1-0.1,0.2-0.2,0.2h-1.6c-0.1,0-0.2-0.1-0.2-0.2V21h-3.7c-0.1,0-0.2-0.1-0.2-0.2v-1.6
	c0-0.1,0.1-0.2,0.2-0.2h3.7v-3.8c0-0.1,0.1-0.2,0.2-0.2h1.6c0.1,0,0.2,0.1,0.2,0.2V19h3.7c0.1,0,0.2,0.1,0.2,0.2v1.6
	C35.5,20.9,35.4,21,35.3,21z M23.4,6.6C23.4,6.6,23.4,6.6,23.4,6.6l-2.4,0c0.9,0.7,2.8,2.3,2.8,5.3c0,3-1.7,4.4-3.3,5.6l0,0
	c-0.5,0.5-1,1-1,1.9c0,0.8,0.5,1.3,1,1.7l1.4,1.1c1.7,1.4,3.3,2.8,3.3,5.5c0,3.7-3.5,7.4-10.2,7.4c-5.8,0-8.3-2.8-8.3-5.6
	c0-0.7,0.2-3.1,3-4.8c2.4-1.5,5.6-1.7,7.3-1.8l0.1,0l-0.1-0.1c-0.5-0.7-1.1-1.4-1.1-2.6c0-0.6,0.2-1,0.3-1.4l0.1-0.1
	c-0.4,0-0.8,0.1-1.2,0.1c-4.2,0-6.4-3.2-6.4-6.1c0-1.9,0.9-3.9,2.5-5.2c2-1.6,4.2-2.3,7.3-2.3h7.1c0.1,0,0.1,0,0.1,0.1
	c0,0.1,0,0.1-0.1,0.2L23.4,6.6z M13.3,24.6c-2.2,0.8-3.3,2.2-3.3,4c0,2.9,2.7,4.8,6.8,4.8c3.5,0,5.7-1.6,5.7-4.2
	c0-2-1.4-3.1-4.2-5.2c-0.3,0-0.5,0-0.9,0C17.3,23.9,15,24,13.3,24.6z M15.4,6.5c-1,0-2.1,0.5-2.7,1.3c-0.6,0.7-0.9,1.7-0.9,2.9
	c0,2.4,1.4,7,4.9,7c0.9,0,2-0.4,2.6-1.1c1-1,1-2.4,1-2.9C20.3,10.7,18.6,6.5,15.4,6.5z"/>
</svg>
