<?xml version="1.0" encoding="utf-8"?>
<!-- Generator: Adobe Illustrator 22.1.0, SVG Export Plug-In . SVG Version: 6.00 Build 0)  -->
<svg version="1.1" id="Layer_1" xmlns="http://www.w3.org/2000/svg" xmlns:xlink="http://www.w3.org/1999/xlink" x="0px" y="0px"
	 viewBox="0 0 38.8 38.8" style="enable-background:new 0 0 38.8 38.8;" xml:space="preserve">
<style type="text/css">
	.st0{fill:#FFFFFF;}
</style>
<path class="st0" d="M26.9,4l-3.8,0C18.7,4,16,6.9,16,11.4v3.4h-3.9c-0.3,0-0.6,0.3-0.6,0.6v4.9c0,0.3,0.3,0.6,0.6,0.6H16v12.4
	c0,0.3,0.3,0.6,0.6,0.6h5c0.3,0,0.6-0.3,0.6-0.6V20.9h4.5c0.3,0,0.6-0.3,0.6-0.6l0-4.9c0-0.2-0.1-0.3-0.2-0.4s-0.3-0.2-0.4-0.2h-4.5
	v-2.9c0-1.4,0.3-2.1,2.1-2.1l2.6,0c0.3,0,0.6-0.3,0.6-0.6V4.6C27.5,4.3,27.2,4,26.9,4z"/>
</svg>
