<?xml version="1.0" encoding="utf-8"?>
<!-- Generator: Adobe Illustrator 22.1.0, SVG Export Plug-In . SVG Version: 6.00 Build 0)  -->
<svg version="1.1" id="Layer_1" xmlns="http://www.w3.org/2000/svg" xmlns:xlink="http://www.w3.org/1999/xlink" x="0px" y="0px"
	 viewBox="0 0 38.8 38.8" style="enable-background:new 0 0 38.8 38.8;" xml:space="preserve">
<style type="text/css">
	.st0{fill:#FFFFFF;}
</style>
<path class="st0" d="M34.2,5.3c-0.4-0.3-0.8-0.4-1.3-0.2L2.7,18.3c-0.8,0.3-1.2,1.1-1.2,1.9c0,0.8,0.6,1.5,1.4,1.8l7.5,2.3
	c0.6,0.2,1.3-0.2,1.5-0.8c0.2-0.6-0.2-1.3-0.8-1.5L4.8,20L28.5,9.7L14.5,23.7c0,0,0,0,0,0l-0.1,0.1c0,0,0,0,0,0c0,0,0,0,0,0
	c0,0,0,0,0,0c0,0,0,0,0,0c0,0,0,0,0,0.1c0,0,0,0,0,0c0,0,0,0,0,0.1c0,0,0,0,0,0c0,0,0,0,0,0.1c0,0,0,0,0,0l0,0.1c0,0,0,0,0,0
	c0,0,0,0.1,0,0.1v0.2l0.4,7c0,0.8,0.5,1.4,1.3,1.7c0.2,0.1,0.4,0.1,0.6,0.1c0.5,0,1-0.2,1.4-0.6l2.8-3.1l5.5,3.8
	c0.3,0.2,0.7,0.4,1.1,0.4c0.2,0,0.5,0,0.7-0.1c0.6-0.2,1.1-0.8,1.2-1.4l5.5-25.7C34.7,6,34.6,5.6,34.2,5.3L34.2,5.3z M16.9,30.1
	l-0.2-3.1l1.8,1.3L16.9,30.1z M26.9,31l-9.6-6.7l14-14L26.9,31z M26.9,31"/>
</svg>
