<?xml version="1.0" encoding="utf-8"?>
<!-- Generator: Adobe Illustrator 22.1.0, SVG Export Plug-In . SVG Version: 6.00 Build 0)  -->
<svg version="1.1" id="Layer_1" xmlns="http://www.w3.org/2000/svg" xmlns:xlink="http://www.w3.org/1999/xlink" x="0px" y="0px"
	 viewBox="0 0 480 480" style="enable-background:new 0 0 480 480;" xml:space="preserve">
<style type="text/css">
	.st0{fill:#49B6C2;}
</style>
<path class="st0" d="M117.1,165.8c41,45,90.9,105.8,160.6,80.9c52.9-18.9,93.1-96.3,85-149.7c-12-80-87.3-100-156.8-85.7
	C121.3,28.6,112.8,88.6,117.1,165.8z M296.5,107.6c4.4,66.9-83.2,107.1-112.9,34.7C153.8,69.8,281.3,41.8,296.5,107.6z"/>
<path class="st0" d="M93.4,480c-1.2-22-0.5-44,2.1-65.8c3.8-25.5,9.9-51,19.3-75c2.1-4.6,4.5-9,7.3-13.2c0.4-0.4,0.7-0.8,1.1-1.2
	c1.9,1.1,3.7,2.3,5.5,3.6c12.8,10.4,25,21.6,40.3,28.4c20.4,9,42.4,13.9,64.8,12.5c23.3-1.4,44.4-7.7,65.5-17.4
	c7.7-3.6,15.2-7.7,22.4-12.3c5.4-3.5,10.5-7.8,16-11.2c2.1,0.5,4.1,1.1,6.1,1.7c2.9,1.5,5.7,3.2,8.4,5c3.3,2.9,6.5,6.1,9.4,9.4
	c4.5,6.5,8.4,13.5,11.7,20.7c11.2,28.5,17.8,59.3,22.1,89.6c1,8.4,1.9,16.8,2.5,25.3h73.9c-2.7-40.9-10.1-81.8-22.5-120.6
	c-8.1-25.5-19.5-49.8-37.7-69.6c-19.1-20.7-45.6-33.9-73.8-35.4c-11.3-0.6-22.3,2.2-32.3,7.3c-5.5,2.8-10.3,6.8-15.3,10.3
	c-9,6.2-18.4,11.6-28.2,16.1c-8.1,3.1-16.4,5.5-24.9,7c-6.5,0.6-13,0.6-19.6,0.1c-5.2-1-10.3-2.3-15.3-4.1
	c-4.2-2.1-8.3-4.5-12.1-7.2c-15.9-13-31.5-28.1-52.4-32.1c-16.9-3.3-32.4-1.2-47.9,6.5c-12.2,6-21.1,16.4-29,27.1
	c-12.6,16.9-19.3,38.4-25.2,58.5c-7.1,23.9-11.3,48.3-14.1,73c-2.4,21-3,42.1-1.8,63.2H93.4z"/>
</svg>
