<?xml version="1.0" encoding="utf-8"?>
<!-- Generator: Adobe Illustrator 22.1.0, SVG Export Plug-In . SVG Version: 6.00 Build 0)  -->
<svg version="1.1" id="Layer_1" xmlns="http://www.w3.org/2000/svg" xmlns:xlink="http://www.w3.org/1999/xlink" x="0px" y="0px"
	 viewBox="0 0 38.8 38.8" style="enable-background:new 0 0 38.8 38.8;" xml:space="preserve">
<style type="text/css">
	.st0{fill:#FFFFFF;}
</style>
<path class="st0" d="M28.8,26.5h-7.3c-1,0-1.9-0.4-2.6-1.1c-0.7-0.7-1.1-1.6-1.1-2.6v-2.6h10.4c0.9,0,1.7-0.3,2.4-1
	c0.7-0.7,1-1.5,1-2.5c0-1-0.3-1.8-1-2.5c-0.7-0.7-1.5-1-2.4-1H17.9V7.8c0-1-0.4-1.9-1.1-2.6C16.1,4.4,15.2,4,14.2,4
	c-1,0-1.9,0.4-2.6,1.1c-0.7,0.7-1.1,1.6-1.1,2.7v15c0,3.1,1.1,5.7,3.2,7.9c2.2,2.2,4.8,3.3,7.8,3.3h7.3c1,0,1.9-0.4,2.6-1.1
	c0.7-0.7,1.1-1.6,1.1-2.6c0-1-0.4-1.9-1.1-2.6C30.7,26.9,29.8,26.5,28.8,26.5z"/>
</svg>
