<?xml version="1.0" encoding="utf-8"?>
<!-- Generator: Adobe Illustrator 22.1.0, SVG Export Plug-In . SVG Version: 6.00 Build 0)  -->
<svg version="1.1" id="Layer_1" xmlns="http://www.w3.org/2000/svg" xmlns:xlink="http://www.w3.org/1999/xlink" x="0px" y="0px"
	 viewBox="0 0 38.8 38.8" style="enable-background:new 0 0 38.8 38.8;" xml:space="preserve">
<style type="text/css">
	.st0{fill:#FFFFFF;}
</style>
<path class="st0" d="M19.5,3.5C11,3.5,4,10.5,4,19c0,4.5,2,8.8,5.4,11.8c0,0,0.1,0.1,0.2,0.2c2.8,2.3,6.2,3.6,9.9,3.6
	c3.5,0,7-1.2,9.8-3.5c0.2-0.1,0.3-0.2,0.5-0.4c3.3-3,5.2-7.2,5.2-11.7C35,10.5,28,3.5,19.5,3.5z M19.5,22.1c-2.3,0-4.1-1.8-4.1-4.1
	s1.8-4.1,4.1-4.1s4.1,1.8,4.1,4.1C23.6,20.2,21.8,22.1,19.5,22.1z M15.8,23.3c2.2,1.5,5.2,1.5,7.5,0c3.3,1.8,4.1,4.7,4.3,6.2
	c-2.3,1.8-5.1,2.7-8,2.7l0,0c-2.9,0-5.7-0.9-8-2.7C11.7,28.2,12.4,25.1,15.8,23.3z M26,17.9c0-3.6-2.9-6.5-6.5-6.5S13,14.3,13,17.9
	c0,1.2,0.4,2.4,1,3.5c-2.9,1.8-4.1,4.2-4.6,6c-2-2.3-3.1-5.3-3.1-8.4c0-7.2,5.9-13.1,13.1-13.1S32.5,11.8,32.5,19
	c0,3.1-1.1,6.1-3.1,8.4c-0.5-1.7-1.8-4.2-4.6-6C25.6,20.4,26,19.2,26,17.9z"/>
</svg>
