<?xml version="1.0" encoding="utf-8"?>
<!-- Generator: Adobe Illustrator 22.1.0, SVG Export Plug-In . SVG Version: 6.00 Build 0)  -->
<svg version="1.1" id="Layer_1" xmlns="http://www.w3.org/2000/svg" xmlns:xlink="http://www.w3.org/1999/xlink" x="0px" y="0px"
	 viewBox="0 0 38.8 38.8" style="enable-background:new 0 0 38.8 38.8;" xml:space="preserve">
<style type="text/css">
	.st0{fill:#FFFFFF;}
</style>
<g>
	<path class="st0" d="M19.9,28.6c2.2,0,4-1.8,4-4c0-2.2-1.8-4-4-4s-4,1.8-4,4C15.8,26.7,17.7,28.6,19.9,28.6z M18.6,24.5
		c0-0.7,0.6-1.3,1.3-1.3s1.3,0.6,1.3,1.3c0,0.7-0.6,1.3-1.3,1.3S18.6,25.2,18.6,24.5z"/>
	<path class="st0" d="M30.5,15.1h-1.3V14c0-5.2-4.2-9.5-9.3-9.5c-5.2,0-9.3,4.3-9.3,9.5v1.1H9.3c-1.3,0-2.3,1-2.3,2.3v14.2
		c0,1.3,1,2.3,2.3,2.3h21.2c1.3,0,2.3-1,2.3-2.3V17.4C32.8,16.2,31.7,15.1,30.5,15.1z M13.3,15.1V14c0-3.7,2.9-6.7,6.6-6.7
		s6.6,3,6.6,6.7v1.1H13.3z M30,17.9v13.2H9.8V17.9H30z"/>
</g>
</svg>
