<?xml version="1.0" encoding="iso-8859-1"?>
<!-- Generator: Adobe Illustrator 22.1.0, SVG Export Plug-In . SVG Version: 6.00 Build 0)  -->
<svg version="1.1" id="Capa_1" xmlns="http://www.w3.org/2000/svg" xmlns:xlink="http://www.w3.org/1999/xlink" x="0px" y="0px"
	 viewBox="-49 141 512 512" style="enable-background:new -49 141 512 512;" xml:space="preserve">
<g>
	<path style="fill:#4AB7C3;" d="M398.109,551.628H32.129c-10.691,0-19.39,8.69-19.39,19.372c0,10.511,8.879,19.39,19.39,19.39
		h366.323c10.682,0,19.372-8.698,19.372-19.39C417.824,560.499,408.796,551.628,398.109,551.628z"/>
	<path style="fill:#4AB7C3;" d="M31.831,520.806l64.871-0.326c5.25,0,9.99-1.963,13.71-5.679l224.124-224.14
		c7.562-7.54,7.617-19.679,0.124-27.635l-64.349-65.017c-7.549-7.55-19.685-7.603-27.627-0.117l-44.939,45.279L18.422,422.134
		l-0.266,0.284c-3.542,4.056-5.415,8.697-5.417,13.422l-0.326,65.247c0,5.314,2.07,10.432,5.679,14.04
		C21.808,518.842,26.548,520.806,31.831,520.806z M239.202,256.869l17.399-17.399l37.148,37.149l-17.398,17.398L239.202,256.869z
		 M51.563,481.327l0.268-37.088l159.603-159.603l37.146,37.145L88.983,481.046L51.563,481.327z"/>
</g>
</svg>
